<svg width="1440" height="256" viewBox="0 0 1440 256" fill="none" xmlns="http://www.w3.org/2000/svg">
<g clip-path="url(#clip0_337_418)">
<rect width="1440" height="256" fill="#E8EDF2"/>
<g opacity="0.8">
<mask id="mask0_337_418" style="mask-type:alpha" maskUnits="userSpaceOnUse" x="299" y="-174" width="768" height="768">
<rect width="768" height="768" transform="translate(299 -174)" fill="url(#paint0_radial_337_418)"/>
</mask>
<g mask="url(#mask0_337_418)">
<g clip-path="url(#clip1_337_418)">
<g opacity="0.5">
<g clip-path="url(#clip2_337_418)">
<line x1="299.3" y1="-174" x2="299.3" y2="594" stroke="#0BCACA" stroke-opacity="0.4" stroke-width="0.6"/>
<line x1="347.3" y1="-174" x2="347.3" y2="594" stroke="#0BCACA" stroke-opacity="0.4" stroke-width="0.6"/>
<line x1="395.3" y1="-174" x2="395.3" y2="594" stroke="#0BCACA" stroke-opacity="0.4" stroke-width="0.6"/>
<line x1="443.3" y1="-174" x2="443.3" y2="594" stroke="#0BCACA" stroke-opacity="0.4" stroke-width="0.6"/>
<line x1="491.3" y1="-174" x2="491.3" y2="594" stroke="#0BCACA" stroke-opacity="0.4" stroke-width="0.6"/>
<line x1="539.3" y1="-174" x2="539.3" y2="594" stroke="#0BCACA" stroke-opacity="0.4" stroke-width="0.6"/>
<line x1="587.3" y1="-174" x2="587.3" y2="594" stroke="#0BCACA" stroke-opacity="0.4" stroke-width="0.6"/>
<line x1="635.3" y1="-174" x2="635.3" y2="594" stroke="#0BCACA" stroke-opacity="0.4" stroke-width="0.6"/>
<line x1="683.3" y1="-174" x2="683.3" y2="594" stroke="#0BCACA" stroke-opacity="0.4" stroke-width="0.6"/>
<line x1="731.3" y1="-174" x2="731.3" y2="594" stroke="#0BCACA" stroke-opacity="0.4" stroke-width="0.6"/>
<line x1="779.3" y1="-174" x2="779.3" y2="594" stroke="#0BCACA" stroke-opacity="0.4" stroke-width="0.6"/>
<line x1="827.3" y1="-174" x2="827.3" y2="594" stroke="#0BCACA" stroke-opacity="0.4" stroke-width="0.6"/>
<line x1="875.3" y1="-174" x2="875.3" y2="594" stroke="#0BCACA" stroke-opacity="0.4" stroke-width="0.6"/>
<line x1="923.3" y1="-174" x2="923.3" y2="594" stroke="#0BCACA" stroke-opacity="0.4" stroke-width="0.6"/>
<line x1="971.3" y1="-174" x2="971.3" y2="594" stroke="#0BCACA" stroke-opacity="0.4" stroke-width="0.6"/>
<line x1="1019.3" y1="-174" x2="1019.3" y2="594" stroke="#0BCACA" stroke-opacity="0.4" stroke-width="0.6"/>
</g>
<rect x="299.5" y="-173.5" width="767" height="767" stroke="#1F242F"/>
</g>
<g opacity="0.5">
<g clip-path="url(#clip3_337_418)">
<line x1="299" y1="17.7" x2="1067" y2="17.7" stroke="#0BCACA" stroke-opacity="0.4" stroke-width="0.6"/>
<line x1="299" y1="65.7" x2="1067" y2="65.7" stroke="#0BCACA" stroke-opacity="0.4" stroke-width="0.6"/>
<line x1="299" y1="113.7" x2="1067" y2="113.7" stroke="#0BCACA" stroke-opacity="0.4" stroke-width="0.6"/>
<line x1="299" y1="161.7" x2="1067" y2="161.7" stroke="#0BCACA" stroke-opacity="0.4" stroke-width="0.6"/>
<line x1="299" y1="209.7" x2="1067" y2="209.7" stroke="#0BCACA" stroke-opacity="0.4" stroke-width="0.6"/>
</g>
<rect x="299.5" y="-173.5" width="767" height="767" stroke="#1F242F"/>
</g>
</g>
<path d="M683 102L683 126" stroke="url(#paint1_linear_337_418)"/>
<path d="M695 114L671 114" stroke="url(#paint2_linear_337_418)"/>
<path d="M539 202L539 218" stroke="url(#paint3_linear_337_418)"/>
<path d="M551 210L527 210" stroke="url(#paint4_linear_337_418)"/>
<path d="M875 202L875 218" stroke="url(#paint5_linear_337_418)"/>
<path d="M883 210L867 210" stroke="url(#paint6_linear_337_418)"/>
<path d="M876 54L876 78" stroke="url(#paint7_linear_337_418)"/>
<path d="M888 66L864 66" stroke="url(#paint8_linear_337_418)"/>
<path d="M779 149L779 173" stroke="url(#paint9_linear_337_418)"/>
<path d="M791 161L767 161" stroke="url(#paint10_linear_337_418)"/>
<circle cx="587" cy="162" r="2" fill="#0BCACA" fill-opacity="0.4"/>
<circle cx="779" cy="66" r="2" fill="#0BCACA" fill-opacity="0.4"/>
<circle cx="443" cy="210" r="2" fill="#0BCACA" fill-opacity="0.4"/>
<rect x="827" y="114" width="49" height="48" fill="#0BCACA" fill-opacity="0.15"/>
</g>
</g>
<path d="M1149 150L1149 174" stroke="url(#paint11_linear_337_418)"/>
<path d="M1161 162L1137 162" stroke="url(#paint12_linear_337_418)"/>
<path d="M1313 77L1313 101" stroke="url(#paint13_linear_337_418)"/>
<path d="M1325 89L1301 89" stroke="url(#paint14_linear_337_418)"/>
<g opacity="0.3">
<path d="M192 210L192 234" stroke="url(#paint15_linear_337_418)"/>
<path d="M204 222L180 222" stroke="url(#paint16_linear_337_418)"/>
</g>
<path opacity="0.5" d="M97 89L97 113" stroke="url(#paint17_linear_337_418)"/>
<path opacity="0.5" d="M109 101L85 101" stroke="url(#paint18_linear_337_418)"/>
<g opacity="0.5">
<path d="M1384 162L1384 186" stroke="url(#paint19_linear_337_418)"/>
<path d="M1396 174L1372 174" stroke="url(#paint20_linear_337_418)"/>
</g>
</g>
<defs>
<radialGradient id="paint0_radial_337_418" cx="0" cy="0" r="1" gradientUnits="userSpaceOnUse" gradientTransform="translate(384 384) rotate(90) scale(384 384)">
<stop/>
<stop offset="1" stop-opacity="0"/>
</radialGradient>
<linearGradient id="paint1_linear_337_418" x1="683" y1="126" x2="683" y2="102" gradientUnits="userSpaceOnUse">
<stop stop-color="white" stop-opacity="0"/>
<stop offset="0.50284" stop-color="white"/>
<stop offset="1" stop-color="white" stop-opacity="0"/>
</linearGradient>
<linearGradient id="paint2_linear_337_418" x1="671" y1="114" x2="695" y2="114" gradientUnits="userSpaceOnUse">
<stop stop-color="white" stop-opacity="0"/>
<stop offset="0.50284" stop-color="white"/>
<stop offset="1" stop-color="white" stop-opacity="0"/>
</linearGradient>
<linearGradient id="paint3_linear_337_418" x1="539" y1="218" x2="539" y2="202" gradientUnits="userSpaceOnUse">
<stop stop-color="white" stop-opacity="0"/>
<stop offset="0.50284" stop-color="white"/>
<stop offset="1" stop-color="white" stop-opacity="0"/>
</linearGradient>
<linearGradient id="paint4_linear_337_418" x1="527" y1="210" x2="551" y2="210" gradientUnits="userSpaceOnUse">
<stop stop-color="white" stop-opacity="0"/>
<stop offset="0.50284" stop-color="white"/>
<stop offset="1" stop-color="white" stop-opacity="0"/>
</linearGradient>
<linearGradient id="paint5_linear_337_418" x1="875" y1="218" x2="875" y2="202" gradientUnits="userSpaceOnUse">
<stop stop-color="white" stop-opacity="0"/>
<stop offset="0.50284" stop-color="white"/>
<stop offset="1" stop-color="white" stop-opacity="0"/>
</linearGradient>
<linearGradient id="paint6_linear_337_418" x1="867" y1="210" x2="883" y2="210" gradientUnits="userSpaceOnUse">
<stop stop-color="white" stop-opacity="0"/>
<stop offset="0.50284" stop-color="white"/>
<stop offset="1" stop-color="white" stop-opacity="0"/>
</linearGradient>
<linearGradient id="paint7_linear_337_418" x1="876" y1="78" x2="876" y2="54" gradientUnits="userSpaceOnUse">
<stop stop-color="white" stop-opacity="0"/>
<stop offset="0.50284" stop-color="white"/>
<stop offset="1" stop-color="white" stop-opacity="0"/>
</linearGradient>
<linearGradient id="paint8_linear_337_418" x1="864" y1="66" x2="888" y2="66" gradientUnits="userSpaceOnUse">
<stop stop-color="white" stop-opacity="0"/>
<stop offset="0.50284" stop-color="white"/>
<stop offset="1" stop-color="white" stop-opacity="0"/>
</linearGradient>
<linearGradient id="paint9_linear_337_418" x1="779" y1="173" x2="779" y2="149" gradientUnits="userSpaceOnUse">
<stop stop-color="white" stop-opacity="0"/>
<stop offset="0.50284" stop-color="white"/>
<stop offset="1" stop-color="white" stop-opacity="0"/>
</linearGradient>
<linearGradient id="paint10_linear_337_418" x1="767" y1="161" x2="791" y2="161" gradientUnits="userSpaceOnUse">
<stop stop-color="white" stop-opacity="0"/>
<stop offset="0.50284" stop-color="white"/>
<stop offset="1" stop-color="white" stop-opacity="0"/>
</linearGradient>
<linearGradient id="paint11_linear_337_418" x1="1149" y1="174" x2="1149" y2="150" gradientUnits="userSpaceOnUse">
<stop stop-color="#0BCACA" stop-opacity="0"/>
<stop offset="0.50284" stop-color="#0BCACA"/>
<stop offset="1" stop-color="#0BCACA" stop-opacity="0"/>
</linearGradient>
<linearGradient id="paint12_linear_337_418" x1="1137" y1="162" x2="1161" y2="162" gradientUnits="userSpaceOnUse">
<stop stop-color="#0BCACA" stop-opacity="0"/>
<stop offset="0.50284" stop-color="#0BCACA"/>
<stop offset="1" stop-color="#0BCACA" stop-opacity="0"/>
</linearGradient>
<linearGradient id="paint13_linear_337_418" x1="1313" y1="101" x2="1313" y2="77" gradientUnits="userSpaceOnUse">
<stop stop-color="white" stop-opacity="0"/>
<stop offset="0.50284" stop-color="white"/>
<stop offset="1" stop-color="white" stop-opacity="0"/>
</linearGradient>
<linearGradient id="paint14_linear_337_418" x1="1301" y1="89" x2="1325" y2="89" gradientUnits="userSpaceOnUse">
<stop stop-color="white" stop-opacity="0"/>
<stop offset="0.50284" stop-color="white"/>
<stop offset="1" stop-color="white" stop-opacity="0"/>
</linearGradient>
<linearGradient id="paint15_linear_337_418" x1="192" y1="234" x2="192" y2="210" gradientUnits="userSpaceOnUse">
<stop stop-color="white" stop-opacity="0"/>
<stop offset="0.50284" stop-color="white"/>
<stop offset="1" stop-color="white" stop-opacity="0"/>
</linearGradient>
<linearGradient id="paint16_linear_337_418" x1="180" y1="222" x2="204" y2="222" gradientUnits="userSpaceOnUse">
<stop stop-color="white" stop-opacity="0"/>
<stop offset="0.50284" stop-color="white"/>
<stop offset="1" stop-color="white" stop-opacity="0"/>
</linearGradient>
<linearGradient id="paint17_linear_337_418" x1="97" y1="113" x2="97" y2="89" gradientUnits="userSpaceOnUse">
<stop stop-color="white" stop-opacity="0"/>
<stop offset="0.50284" stop-color="white"/>
<stop offset="1" stop-color="white" stop-opacity="0"/>
</linearGradient>
<linearGradient id="paint18_linear_337_418" x1="85" y1="101" x2="109" y2="101" gradientUnits="userSpaceOnUse">
<stop stop-color="white" stop-opacity="0"/>
<stop offset="0.50284" stop-color="white"/>
<stop offset="1" stop-color="white" stop-opacity="0"/>
</linearGradient>
<linearGradient id="paint19_linear_337_418" x1="1384" y1="186" x2="1384" y2="162" gradientUnits="userSpaceOnUse">
<stop stop-color="white" stop-opacity="0"/>
<stop offset="0.50284" stop-color="white"/>
<stop offset="1" stop-color="white" stop-opacity="0"/>
</linearGradient>
<linearGradient id="paint20_linear_337_418" x1="1372" y1="174" x2="1396" y2="174" gradientUnits="userSpaceOnUse">
<stop stop-color="white" stop-opacity="0"/>
<stop offset="0.50284" stop-color="white"/>
<stop offset="1" stop-color="white" stop-opacity="0"/>
</linearGradient>
<clipPath id="clip0_337_418">
<rect width="1440" height="256" fill="white"/>
</clipPath>
<clipPath id="clip1_337_418">
<rect width="768" height="768" fill="white" transform="translate(299 -174)"/>
</clipPath>
<clipPath id="clip2_337_418">
<rect x="299" y="-174" width="768" height="768" fill="white"/>
</clipPath>
<clipPath id="clip3_337_418">
<rect x="299" y="-174" width="768" height="768" fill="white"/>
</clipPath>
</defs>
</svg>
